<?xml version="1.0" encoding="UTF-8" standalone="no"?>
<!-- Generator: Adobe Illustrator 20.1.0, SVG Export Plug-In . SVG Version: 6.00 Build 0)  -->

<svg
   xmlns:dc="http://purl.org/dc/elements/1.1/"
   xmlns:cc="http://creativecommons.org/ns#"
   xmlns:rdf="http://www.w3.org/1999/02/22-rdf-syntax-ns#"
   xmlns:svg="http://www.w3.org/2000/svg"
   xmlns="http://www.w3.org/2000/svg"
   xmlns:sodipodi="http://sodipodi.sourceforge.net/DTD/sodipodi-0.dtd"
   xmlns:inkscape="http://www.inkscape.org/namespaces/inkscape"
   version="1.1"
   id="Calque_1"
   x="0px"
   y="0px"
   viewBox="0 0 168 71.599998"
   xml:space="preserve"
   inkscape:version="0.91 r13725"
   sodipodi:docname="Impact_orange_background_mobile.svg"
   width="168"
   height="71.599998"><metadata
     id="metadata27"><rdf:RDF><cc:Work
         rdf:about=""><dc:format>image/svg+xml</dc:format><dc:type
           rdf:resource="http://purl.org/dc/dcmitype/StillImage" /><dc:title></dc:title></cc:Work></rdf:RDF></metadata><defs
     id="defs25" /><sodipodi:namedview
     pagecolor="#ffffff"
     bordercolor="#666666"
     borderopacity="1"
     objecttolerance="10"
     gridtolerance="10"
     guidetolerance="10"
     inkscape:pageopacity="0"
     inkscape:pageshadow="2"
     inkscape:window-width="988"
     inkscape:window-height="651"
     id="namedview23"
     showgrid="false"
     inkscape:zoom="1.8248989"
     inkscape:cx="100.98843"
     inkscape:cy="-16.842673"
     inkscape:window-x="0"
     inkscape:window-y="27"
     inkscape:window-maximized="0"
     inkscape:current-layer="Calque_1" /><style
     type="text/css"
     id="style3">
	.st0{opacity:0.9958;fill-rule:evenodd;clip-rule:evenodd;fill:#FBBE0E;}
	.st1{fill:#FFFFFF;}
</style><polygon
     class="st0"
     points="222,360 390,360 390,431.6 222,421.7 "
     id="polygon5"
     style="clip-rule:evenodd;opacity:0.9958;fill:#fbbe0e;fill-rule:evenodd"
     transform="translate(-222.08707,-359.72131)" /><g
     id="g7"
     transform="translate(-222.08707,-359.72131)"><path
       class="st1"
       d="m 242.2,401.4 0,-19.9 c 0,-1 0.2,-1.8 0.7,-2.3 0.5,-0.5 1.1,-0.8 1.8,-0.8 0.8,0 1.4,0.3 1.9,0.8 0.5,0.5 0.7,1.3 0.7,2.3 l 0,19.9 c 0,1 -0.2,1.8 -0.7,2.3 -0.5,0.5 -1.1,0.8 -1.9,0.8 -0.7,0 -1.3,-0.3 -1.8,-0.8 -0.4,-0.4 -0.7,-1.2 -0.7,-2.3 z"
       id="path9"
       inkscape:connector-curvature="0"
       style="fill:#ffffff" /><path
       class="st1"
       d="m 259.6,400.3 -4.1,-16.1 0,17.5 c 0,1 -0.2,1.7 -0.6,2.2 -0.4,0.5 -1,0.7 -1.7,0.7 -0.7,0 -1.3,-0.2 -1.7,-0.7 -0.4,-0.5 -0.7,-1.2 -0.7,-2.2 l 0,-20 c 0,-1.1 0.3,-1.8 0.9,-2.2 0.6,-0.4 1.4,-0.6 2.3,-0.6 l 1.6,0 c 1,0 1.6,0.1 2.1,0.3 0.4,0.2 0.8,0.5 1,0.9 0.2,0.4 0.4,1.2 0.7,2.2 l 3.7,13.8 3.7,-13.8 c 0.3,-1 0.5,-1.7 0.7,-2.2 0.2,-0.5 0.5,-0.8 1,-0.9 0.4,-0.2 1.1,-0.3 2.1,-0.3 l 1.6,0 c 1,0 1.8,0.2 2.3,0.6 0.6,0.4 0.9,1.1 0.9,2.2 l 0,20 c 0,1 -0.2,1.7 -0.6,2.2 -0.4,0.5 -1,0.7 -1.7,0.7 -0.7,0 -1.2,-0.2 -1.7,-0.7 -0.4,-0.5 -0.7,-1.2 -0.7,-2.2 l 0,-17.5 -4.1,16.1 c -0.3,1 -0.5,1.8 -0.6,2.3 -0.2,0.5 -0.5,0.9 -0.9,1.3 -0.4,0.4 -1.1,0.6 -1.9,0.6 -0.6,0 -1.1,-0.1 -1.5,-0.4 -0.4,-0.3 -0.7,-0.6 -1,-1 -0.2,-0.4 -0.4,-0.8 -0.5,-1.3 -0.4,-0.4 -0.5,-0.9 -0.6,-1.5 z"
       id="path11"
       inkscape:connector-curvature="0"
       style="fill:#ffffff" /><path
       class="st1"
       d="m 288.4,394.3 -4.7,0 0,7.2 c 0,1 -0.2,1.8 -0.7,2.3 -0.5,0.5 -1.1,0.8 -1.8,0.8 -0.8,0 -1.4,-0.3 -1.9,-0.8 -0.5,-0.5 -0.7,-1.3 -0.7,-2.3 l 0,-19.5 c 0,-1.1 0.3,-1.9 0.8,-2.4 0.5,-0.5 1.3,-0.7 2.5,-0.7 l 6.6,0 c 1.9,0 3.4,0.1 4.5,0.4 1,0.3 1.9,0.8 2.7,1.4 0.8,0.7 1.3,1.5 1.7,2.4 0.4,1 0.6,2.1 0.6,3.3 0,2.6 -0.8,4.5 -2.4,5.9 -1.7,1.3 -4.1,2 -7.2,2 z m -1.3,-11.6 -3.4,0 0,7.7 3.4,0 c 1.2,0 2.2,-0.1 3,-0.4 0.8,-0.3 1.4,-0.7 1.9,-1.2 0.4,-0.6 0.6,-1.3 0.6,-2.3 0,-1.1 -0.3,-2 -1,-2.7 -0.7,-0.7 -2.2,-1.1 -4.5,-1.1 z"
       id="path13"
       inkscape:connector-curvature="0"
       style="fill:#ffffff" /><path
       class="st1"
       d="m 312.6,401.3 -1.2,-3.2 -10.3,0 -1.2,3.2 c -0.5,1.3 -0.9,2.1 -1.2,2.6 -0.3,0.4 -0.9,0.7 -1.6,0.7 -0.6,0 -1.2,-0.2 -1.7,-0.7 -0.5,-0.5 -0.7,-1 -0.7,-1.6 0,-0.3 0.1,-0.7 0.2,-1.1 0.1,-0.4 0.3,-0.9 0.6,-1.5 l 6.5,-16.4 c 0.2,-0.5 0.4,-1 0.7,-1.7 0.3,-0.7 0.5,-1.2 0.8,-1.6 0.3,-0.4 0.7,-0.8 1.2,-1.1 0.5,-0.3 1.1,-0.4 1.8,-0.4 0.7,0 1.3,0.1 1.8,0.4 0.5,0.3 0.9,0.6 1.2,1 0.3,0.4 0.5,0.9 0.7,1.4 0.2,0.5 0.5,1.1 0.8,2 l 6.6,16.3 c 0.5,1.2 0.8,2.1 0.8,2.7 0,0.6 -0.2,1.1 -0.7,1.6 -0.5,0.5 -1.1,0.7 -1.8,0.7 -0.4,0 -0.7,-0.1 -1,-0.2 -0.3,-0.1 -0.5,-0.3 -0.7,-0.6 -0.2,-0.2 -0.4,-0.6 -0.6,-1.1 -0.6,-0.6 -0.8,-1 -1,-1.4 z m -10.1,-7 7.6,0 -3.8,-10.4 -3.8,10.4 z"
       id="path15"
       inkscape:connector-curvature="0"
       style="fill:#ffffff" /><path
       class="st1"
       d="m 340.2,396.1 c 0,0.8 -0.2,1.7 -0.6,2.6 -0.4,0.9 -1,1.9 -1.9,2.8 -0.9,0.9 -1.9,1.6 -3.3,2.2 -1.3,0.6 -2.9,0.8 -4.6,0.8 -1.3,0 -2.5,-0.1 -3.6,-0.4 -1.1,-0.3 -2.1,-0.6 -3,-1.2 -0.9,-0.5 -1.7,-1.2 -2.5,-2.1 -0.7,-0.8 -1.2,-1.7 -1.7,-2.7 -0.5,-1 -0.8,-2 -1.1,-3.1 -0.2,-1.1 -0.4,-2.3 -0.4,-3.6 0,-2 0.3,-3.9 0.9,-5.5 0.6,-1.6 1.4,-3 2.5,-4.1 1.1,-1.1 2.4,-2 3.9,-2.6 1.5,-0.6 3.1,-0.9 4.7,-0.9 2,0 3.9,0.4 5.5,1.2 1.6,0.8 2.8,1.8 3.7,3 0.9,1.2 1.3,2.3 1.3,3.4 0,0.6 -0.2,1.1 -0.6,1.6 -0.4,0.4 -0.9,0.7 -1.5,0.7 -0.7,0 -1.1,-0.2 -1.5,-0.5 -0.3,-0.3 -0.7,-0.8 -1.1,-1.6 -0.7,-1.3 -1.5,-2.2 -2.4,-2.8 -0.9,-0.6 -2,-0.9 -3.3,-0.9 -2.1,0 -3.8,0.8 -5,2.4 -1.2,1.6 -1.9,3.9 -1.9,6.8 0,2 0.3,3.6 0.8,4.9 0.6,1.3 1.3,2.3 2.3,2.9 1,0.6 2.2,1 3.6,1 1.5,0 2.7,-0.4 3.7,-1.1 1,-0.7 1.8,-1.8 2.3,-3.2 0.2,-0.7 0.5,-1.2 0.8,-1.6 0.3,-0.4 0.8,-0.6 1.6,-0.6 0.6,0 1.1,0.2 1.6,0.6 0.6,0.5 0.8,1 0.8,1.6 z"
       id="path17"
       inkscape:connector-curvature="0"
       style="fill:#ffffff" /><path
       class="st1"
       d="m 358.9,383.1 -5.6,0 0,18.4 c 0,1.1 -0.2,1.8 -0.7,2.4 -0.5,0.5 -1.1,0.8 -1.8,0.8 -0.8,0 -1.4,-0.3 -1.9,-0.8 -0.5,-0.5 -0.7,-1.3 -0.7,-2.3 l 0,-18.4 -5.6,0 c -0.9,0 -1.5,-0.2 -1.9,-0.6 -0.4,-0.4 -0.6,-0.9 -0.6,-1.5 0,-0.7 0.2,-1.2 0.7,-1.6 0.4,-0.4 1.1,-0.6 1.9,-0.6 l 16.3,0 c 0.9,0 1.5,0.2 2,0.6 0.4,0.4 0.6,0.9 0.6,1.5 0,0.6 -0.2,1.1 -0.7,1.5 -0.5,0.4 -1.1,0.6 -2,0.6 z"
       id="path19"
       inkscape:connector-curvature="0"
       style="fill:#ffffff" /><path
       class="st1"
       d="m 363.5,393.2 -0.6,-8.3 c -0.1,-1.6 -0.2,-2.8 -0.2,-3.5 0,-1 0.3,-1.7 0.8,-2.2 0.5,-0.5 1.2,-0.8 2,-0.8 1,0 1.6,0.3 2,1 0.3,0.7 0.5,1.7 0.5,3 0,0.8 0,1.5 -0.1,2.3 l -0.7,8.5 c -0.1,1 -0.3,1.8 -0.5,2.3 -0.3,0.5 -0.7,0.8 -1.3,0.8 -0.6,0 -1.1,-0.3 -1.3,-0.8 -0.3,-0.5 -0.5,-1.2 -0.6,-2.3 z m 1.9,11.3 c -0.7,0 -1.3,-0.2 -1.8,-0.7 -0.5,-0.5 -0.8,-1.1 -0.8,-1.9 0,-0.7 0.3,-1.3 0.8,-1.8 0.5,-0.5 1.1,-0.8 1.8,-0.8 0.7,0 1.3,0.2 1.9,0.8 0.5,0.5 0.8,1.1 0.8,1.8 0,0.8 -0.3,1.4 -0.8,1.9 -0.6,0.5 -1.2,0.7 -1.9,0.7 z"
       id="path21"
       inkscape:connector-curvature="0"
       style="fill:#ffffff" /></g></svg>